<svg id="Layer_1" data-name="Layer 1" xmlns="http://www.w3.org/2000/svg" viewBox="0 0 3517 3157"><defs><style>.cls-1,.cls-2,.cls-3{stroke:#000;stroke-miterlimit:10;}.cls-2,.cls-4,.cls-5{fill:#fff;}.cls-2,.cls-3{stroke-width:1.55px;}.cls-3{fill:none;}.cls-4{fill-rule:evenodd;}</style></defs><circle class="cls-1" cx="1816" cy="1617" r="1188.5"/><line class="cls-2" x1="1521.31" y1="1116.05" x2="1512" y2="1116.05"/><line class="cls-2" x1="1564.09" y1="1004.45" x2="1552.62" y2="1004.45"/><path class="cls-3" d="M2836,1004.44c-91.14,116.25-264.59,111.6-264.59,111.6H1521.31a51.11,51.11,0,0,0-9-.78c-30.55,0-64.33,24.57-75.82,55-.11.26-.2.51-.29.77a61.87,61.87,0,0,0-2.62,9.32l3.67-10.09L1295.7,1562.44h887.7l3.67-1.55c-91.13,116.24-264.59,111.59-264.59,111.59H1700.26L1537.6,2119.39l.12.23s-58.45,175.12-192.45,224.38l-.18-1.21,244-670.31H1256l-.76,0-.75-.06-163.08,448-.05.05c-4,11.53-62.93,176.23-192.21,223.74l94.7-110.41L898,2345.18l420.91-1156.43a186.32,186.32,0,0,1,5.58-18C1358,1078.64,1459.82,1004,1551.91,1004c4.15,0,8.2.16,12.17.45Z"/><path class="cls-4" d="M2836,1004.44c-91.14,116.25-264.59,111.6-264.59,111.6H1521.31a51.11,51.11,0,0,0-9-.78c-30.55,0-64.33,24.57-75.82,55-.11.26-.2.51-.29.77a61.87,61.87,0,0,0-2.62,9.32l3.67-10.09L1295.7,1562.44h887.7l3.67-1.55c-91.13,116.24-264.59,111.59-264.59,111.59H1700.26L1537.6,2119.39l.12.23s-58.45,175.12-192.45,224.38l-.18-1.21,244-670.31H1256l-.76,0-.75-.06-163.08,448-.05.05c-4,11.53-62.93,176.23-192.21,223.74l94.7-110.41L898,2345.18l420.91-1156.43a186.32,186.32,0,0,1,5.58-18C1358,1078.64,1459.82,1004,1551.91,1004c4.15,0,8.2.16,12.17.45Z"/><polygon class="cls-3" points="1255.99 1672.48 1255.21 1672.48 1255.23 1672.44 1255.99 1672.48"/><polygon class="cls-4" points="1255.99 1672.48 1255.21 1672.48 1255.23 1672.44 1255.99 1672.48"/><path class="cls-5" d="M1437.22,1170.29l-3.67,10.09a61.87,61.87,0,0,1,2.62-9.32c.09-.26.18-.51.29-.77Z"/></svg>