<svg xmlns="http://www.w3.org/2000/svg" viewBox="0 0 2378 2378"><defs><style>.cls-1,.cls-2,.cls-3{stroke:#000;stroke-miterlimit:10;}.cls-2,.cls-4,.cls-5{fill:#fff;}.cls-2,.cls-3{stroke-width:1.55px;}.cls-3{fill:none;}.cls-4{fill-rule:evenodd;}</style></defs><g id="Layer_2" data-name="Layer 2"><g id="Layer_1-2" data-name="Layer 1"><circle class="cls-1" cx="1189" cy="1189" r="1188.5"/><line class="cls-2" x1="894.31" y1="688.05" x2="885" y2="688.05"/><line class="cls-2" x1="937.09" y1="576.45" x2="925.62" y2="576.45"/><path class="cls-3" d="M2209,576.44C2117.86,692.69,1944.41,688,1944.41,688H894.31a51.11,51.11,0,0,0-9-.78c-30.55,0-64.33,24.57-75.82,55-.11.26-.2.51-.29.77a61.87,61.87,0,0,0-2.62,9.32l3.67-10.09L668.7,1134.44h887.7l3.67-1.55c-91.13,116.24-264.59,111.59-264.59,111.59H1073.26L910.6,1691.39l.12.23S852.27,1866.74,718.27,1916l-.18-1.21,244-670.31H629l-.76,0-.75-.06L464.4,1692.43l0,0c-4,11.53-62.93,176.23-192.21,223.74l94.7-110.41L271,1917.18,691.91,760.75a186.32,186.32,0,0,1,5.58-18C731,650.64,832.82,576,924.91,576c4.15,0,8.2.16,12.17.45Z"/><path class="cls-4" d="M2209,576.44C2117.86,692.69,1944.41,688,1944.41,688H894.31a51.11,51.11,0,0,0-9-.78c-30.55,0-64.33,24.57-75.82,55-.11.26-.2.51-.29.77a61.87,61.87,0,0,0-2.62,9.32l3.67-10.09L668.7,1134.44h887.7l3.67-1.55c-91.13,116.24-264.59,111.59-264.59,111.59H1073.26L910.6,1691.39l.12.23S852.27,1866.74,718.27,1916l-.18-1.21,244-670.31H629l-.76,0-.75-.06L464.4,1692.43l0,0c-4,11.53-62.93,176.23-192.21,223.74l94.7-110.41L271,1917.18,691.91,760.75a186.32,186.32,0,0,1,5.58-18C731,650.64,832.82,576,924.91,576c4.15,0,8.2.16,12.17.45Z"/><polygon class="cls-3" points="628.99 1244.48 628.21 1244.48 628.23 1244.44 628.99 1244.48"/><polygon class="cls-4" points="628.99 1244.48 628.21 1244.48 628.23 1244.44 628.99 1244.48"/><path class="cls-5" d="M810.22,742.29l-3.67,10.09a61.87,61.87,0,0,1,2.62-9.32c.09-.26.18-.51.29-.77Z"/></g></g></svg>