<svg id="Layer_1" data-name="Layer 1" xmlns="http://www.w3.org/2000/svg" viewBox="0 0 1363.15 658.73">
	<defs>
		<style>
			.cls-1 {
				font-size: 458.6px;
				font-family: BrilliantStarlightRegular, Brilliant Starlight;
				fill: white;
			}

			.cls-2 {
				letter-spacing: -0.02em;
				fill: white;
			}

			.cls-3 {
				letter-spacing: 0em;
				fill: white;
			}

			.cls-4 {
				letter-spacing: -0.03em;
				fill: white;
			}

			.cls-5 {
				letter-spacing: 0.02em;
				fill: white;
			}

			.cls-6 {
				letter-spacing: 0em;
				fill: white;
			}

			.cls-7 {
				font-size: 84.39px;
				font-family: Headson;
				fill: white;
			}

			.cls-8 {
				letter-spacing: 0.04em;
				fill: white;
			}

			.cls-9 {
				letter-spacing: -0.05em;
				fill: white;
			}

			.cls-10 {
				letter-spacing: -0.03em;
				fill: white;
			}

			.cls-11 {
				fill: white;
			}
		</style>
	</defs><text class="cls-1" transform="translate(0.89 450.98) scale(0.97 1)">B<tspan class="cls-2" x="424.2" y="0">l
		</tspan>
		<tspan class="cls-3" x="550.32" y="0">akl</tspan>
		<tspan class="cls-4" x="948.84" y="0">e</tspan>
		<tspan class="cls-5" x="1035.05" y="0">a</tspan>
		<tspan class="cls-6" x="1163.45" y="0">f</tspan>
	</text><text class="cls-7" transform="translate(539.81 577.67) scale(2.3 1)">
		<tspan class="cls-8">F</tspan>
		<tspan x="25.4" y="0">utu</tspan>
		<tspan class="cls-9" x="89.53" y="0">r</tspan>
		<tspan x="109.02" y="0">e T</tspan>
		<tspan class="cls-10" x="173.24" y="0">e</tspan>
		<tspan x="198.22" y="0">ch</tspan>
	</text>
	<path class="cls-11" d="M1662,801.5h0Z" transform="translate(-299.04 -203.27)" />
	<path class="cls-11" d="M1654,801.5h0Z" transform="translate(-299.04 -203.27)" />
	<path class="cls-11" d="M1538.32,801.43h0Z" transform="translate(-299.04 -203.27)" />
	<path class="cls-11" d="M1466.62,801.35l.8,0A5.42,5.42,0,0,0,1466.62,801.35Z"
		transform="translate(-299.04 -203.27)" />
	<path class="cls-11" d="M1454.38,801.24h0Z" transform="translate(-299.04 -203.27)" />
	<path class="cls-11" d="M1538.32,801.43l-1.92,0C1536.27,801.43,1537.38,801.43,1538.32,801.43Z"
		transform="translate(-299.04 -203.27)" />
	<path class="cls-11" d="M1638.08,801.52h0Z" transform="translate(-299.04 -203.27)" />
	<path class="cls-11" d="M1569.92,801.42h.59l.48,0Z" transform="translate(-299.04 -203.27)" />
	<path class="cls-11" d="M1594.18,801.43c-.55,0-.74,0-1,0l1.2,0Z" transform="translate(-299.04 -203.27)" />
	<path class="cls-11" d="M1632.64,801.49h0Z" transform="translate(-299.04 -203.27)" />
	<path class="cls-11" d="M1552.56,801.39h0Z" transform="translate(-299.04 -203.27)" />
	<path class="cls-11" d="M874.12,802.77s0,0,0,0C874,802.75,873.93,802.77,874.12,802.77Z"
		transform="translate(-299.04 -203.27)" />
	<path class="cls-11" d="M846,801.43l.39,0a.27.27,0,0,0,.08-.16Z" transform="translate(-299.04 -203.27)" />
	<path class="cls-11" d="M1432,801.11h.1C1432.66,801.11,1432.33,801.11,1432,801.11Z"
		transform="translate(-299.04 -203.27)" />
	<path class="cls-11" d="M1226.31,800.88c2.33.14-3.79.17-.29.32C1225.7,801.14,1229.21,801,1226.31,800.88Z"
		transform="translate(-299.04 -203.27)" />
	<path class="cls-11" d="M1637.45,801.52h0Z" transform="translate(-299.04 -203.27)" />
	<path class="cls-11" d="M1226,801.2h0l.37,0Z" transform="translate(-299.04 -203.27)" />
	<path class="cls-11" d="M1380.35,801.09l.53,0Z" transform="translate(-299.04 -203.27)" />
	<path class="cls-11" d="M1418.81,801.26h0Z" transform="translate(-299.04 -203.27)" />
	<path class="cls-11" d="M1360.39,801.2c-.52,0-.7,0-1.4,0l.21,0C1359.46,801.19,1359.8,801.19,1360.39,801.2Z"
		transform="translate(-299.04 -203.27)" />
	<path class="cls-11" d="M1339.61,801.18l.38,0h.66Z" transform="translate(-299.04 -203.27)" />
	<path class="cls-11" d="M937.28,802.55a5,5,0,0,1-1-.22C936.64,802.51,933.58,802.57,937.28,802.55Z"
		transform="translate(-299.04 -203.27)" />
	<path class="cls-11" d="M1638.07,801.52h0Z" transform="translate(-299.04 -203.27)" />
	<path class="cls-11" d="M1359.54,802h0Z" transform="translate(-299.04 -203.27)" />
	<path class="cls-11" d="M1086.37,802.31l-.76,0A5.91,5.91,0,0,0,1086.37,802.31Z"
		transform="translate(-299.04 -203.27)" />
	<path class="cls-11" d="M1346.44,802.05c-.59,0-1.21-.06-1.86-.08l-.38,0Z" transform="translate(-299.04 -203.27)" />
	<path class="cls-11" d="M936.31,802.33h0Z" transform="translate(-299.04 -203.27)" />
	<path class="cls-11"
		d="M914.56,803c3.15,0,1.48-.33,2.15-.53,3.75-.1,1.73.25,3,.42,2.35-.09,4.15-.4,5.89-.39.13,0,.47.07.08.14,2.47-.27,7.35,0,10.24-.36a1.18,1.18,0,0,1,.38.09c-.47-.17-.54-.34-.44-.45a14.32,14.32,0,0,1,3.14,0,4.79,4.79,0,0,0-1.34.15l1.48-.1c1.33.31-2,.11-2,.34,2.89-.1,6.24-.36,8.45-.27.46.29-5.16.1-2.22.36l-3.41-.11c2.61.47-2.08,0,.32.48,4.5.08,5-.16,9.52-.08,1-.17-.34-.25.67-.41,6.38-.3,5,.73,9.71.33a14.35,14.35,0,0,1,5-.37l-1.14.33c4.35,0,2.49-.47,7.05-.26-.82.13-3.43.11-2.77.15,3,.25,2.09-.19,4.36-.19l.47.29L988,802.2c-.29.08-1.17.17,0,.25,6.48-.15,13.82,0,20.07.17l2.38-.24c.56,0,1,.11.43.15,2.44.09.13-.15,1.3-.24,1.38,0,1.83.13,1,.2,4.3-.2,12.23-.43,16.76-.19l-.88.06c3.52.09,4-.46,7.24-.26l-.63,0c7.65.09,16.1-.12,21.94.2,1.11-.31,7.57.13,8.06-.3,4.37.21,3.12.29,9.27.42,1.64,0,2.44-.27,4.47-.31l0,.21,2.76-.23,1.47.26,1.9-.06a4.12,4.12,0,0,1-1.5-.16c1.49,0,3.31,0,4.76.05a16.11,16.11,0,0,1,2.57.21l7-.2a17.85,17.85,0,0,1-2.27.18c3.76-.23.68.22,4.13,0-.46,0,.25-.13.33-.17,1.71.12,5.62.12,8.51.06l-.56.14c5.22,0,11-.08,16.87-.09-2.1-.06-1.62-.31.1-.33l.69.21c1.11-.13-1.8-.08.48-.24,2.19,0,1.47.24.21.31l2.66-.08c.16.07-.46.1-.63.18,1.1-.13,4.6.21,6.17,0l.15.06,13.29-.1a22.88,22.88,0,0,1,3.38-.29c3.5,0,7.4.18,11.62.16,3-.09.87-.14,2.2-.25.22.16,4.44.14,2.25.25,5.07,0,6.48,0,12.89-.17-.69-.06-1.48-.09-1.07-.14a9.94,9.94,0,0,1,2.48.14h-.31c7.2-.23,16.62.41,22.35.09l-.32,0L1210,802c2.73,0-1.64.1.38.19,6.42-.24,10.13,0,15.41-.14,4.09.39,14.51-.05,20,.19l-.32-.09a21.26,21.26,0,0,1,2.77.07c-.15-.07-1.55-.08-.66-.13,12.08-.13,24.93.09,37.31.14,4.53,0,2.58-.43,8.28-.24l-1.62.15c9.14-.19,18.69,0,27.64-.19a11.07,11.07,0,0,1-1.42.08c.94.05,2.69.05,4.21,0l2-.05a5.34,5.34,0,0,0,.84-.06c1.39,0,.32.08,1.18.11,1.9.06,4.76-.13,5.77,0,.17,0-.54,0-.88,0,1.23-.05,5.75,0,4.57-.11,3.36,0,6.42-.06,9.1,0,1.75-.12,5.75,0,6.31-.12-.24.18,5.88.13,8,0-.71.05,1.84.05,1,.12a27.52,27.52,0,0,0,4.22-.12c4.47.19,9-.17,11.49.07l20.33-.2c-.23.15-7.15,0-6.88.18,6.15-.07,9.69-.2,15.78-.17,1.58,0-.89.06-1.43.09l17.33-.09a1.91,1.91,0,0,1-.38,0l-.78,0a23.1,23.1,0,0,0,2.38,0h-1c-1.72-.08,4.27-.18,4.47-.23-1.83.17,5.39,0,2.49.26a6.84,6.84,0,0,0,1.43-.08c1,0,1.39,0,.32.08,3.86,0,2.49-.1,6-.1,0,0-.72,0-1.08.07,1.77-.06,3.55-.11,6.5-.09-.18,0,.16,0-.72,0,5.07,0,8.64-.15,14.2-.1-1.64.11,1.89,0,2.19.13l3,0-1.2,0c2.62,0,4.93-.07,7.18,0l-1.94,0,4.91,0-2.78,0a31.73,31.73,0,0,1,3.2-.09c-.71,0,2.62,0,4,.05h0c1.29,0,2.63-.06,4.56,0,.51,0-.4.09-.07.11,1.27-.07,6.13,0,7.75-.1-.54,0-.57.06-.39.07l1.07,0c1.21,0,1.39,0,1.19.06,3.65,0-1.15-.1,3.18-.06l-.89,0,12.4,0c1.18.08-3.49,0-2.14.09l17.51-.09h-1c.78-.1,4.16,0,7,0-.69,0-.91,0-.72,0l13.6,0-.72,0h8.36c.72,0,2.11,0,1.27,0,7.49.1,14.3-.07,21,0a6.74,6.74,0,0,0-1.26,0l5.66,0c-.44,0-.74,0-1.93,0l3.72,0c-2.55,0,0,0,1.12,0-.18,0,.2,0,.1,0,3,0,.5,0,4.54,0l-.21,0,4.53,0c.68,0-1.61,0-1.71,0,2.29,0,4.52,0,6.59,0h-3.34l4.2,0h2.72c2.87-.06,5.84,0,9.7,0-3.75,0-.62,0-.91,0,1,0,2.49,0,2.06,0l5.62,0c.12,0,2,0,1.55,0,2.37,0-.57,0-.37,0l13.86,0,9.59,0c1.42,0-1.16,0-1.16,0h18.08c.87,0,.45,0-.19,0H1636c-.66,0-1.11,0,.39,0h-12.15c-5.29,0-.51,0-4.48,0l-2.67,0-.52,0c-.55,0-1.63,0-1.43,0-2,0,.35,0-.83,0-2.63,0-7.24,0-7.83,0-1,0,2.51,0-.3,0-.8,0-3.24,0-5.64,0,.74,0,3,0,.61,0-1.44,0-4.67,0-6.69,0l-.78,0h-7l-9.55,0h.09c-.61,0-3.87,0-6.24,0,.09,0,.52,0,1.81,0h-2.23l-2.67,0,.56,0h-9.8c-.22,0,3,.09-1,.11-.15,0-.3,0,.76,0h-1.94l1.62,0c-1.74,0-.91,0-2.3,0,0,0-1,0-.83,0h1.74l-4.09-.05c.14,0,0,0-1.15,0-3,0-1,0-2.74,0-.72,0-2.62,0-2.67,0-.87,0-1,0-1.36,0-1.54,0-7.18,0-5.45.05h.15c-5,0-10.47,0-15.46,0v0l-8.77.05a10.47,10.47,0,0,1-1.71-.06c-2.28,0-2.53,0-5.83,0,2.29,0-.79,0,2.35,0-3,0-3.63,0-6.81,0a31.28,31.28,0,0,0-3.64,0l2.07,0h-4.37l.76-.07c-6.06-.09-10.93.14-15.55,0-1.6.05,3.29,0,1.86.09-2.79,0-5.7-.12-6.57-.12-3.82,0-3.56.11-7.56.08.51,0,1,.1-2,.12-2.79,0-3.43-.12-1.66-.14a8.78,8.78,0,0,1,1,0c.9,0,2.09,0,1-.05l-.36,0c-1.39,0-5.23,0-4.32-.08-2.11,0-.91,0,.66.06l-9.28,0c.58,0,1.12,0,.54,0-5.4,0-2.38.06-6,.07a19.42,19.42,0,0,0-2.94-.08c-2.25,0-.48-.08.42-.11-3.36.06-6.28,0-8.2-.06l1.77,0h-2.8l1,.06h-1.35a2.61,2.61,0,0,1-.55,0c-1.07,0,.82.11-1.31.17-1.38,0-4.21,0-4.69-.06,4.35,0-.48-.09,3.2-.1h-2.62c-.15,0,.15,0,.43,0-4.16-.08-1.91.1-6.23.09.55-.05-1-.09-1.71-.09,1.74,0,.84.09-.76.13-2.77,0-3,0-4.46,0l1.66,0c-.57.05-2,.05-3.88.06-.17,0,1.75,0,1.06,0-2.14.09-4.84-.11-7.83,0-1.38,0-.13-.1-1.35-.13-3.35.07-3.63-.08-7.15,0,1,.07,1.2.06-1.28.13l5.78-.05-3.71.11,4.73,0c-1.77.06-1.59,0-.75.1-2.39-.11-4.74.06-7.5,0l.08-.19c-4.15-.09-7.38.09-12.77,0l1.73,0c-.72.07-3.33,0-5.07,0a7.56,7.56,0,0,0-1.68-.14c.09,0-4,0-4.44.13l-2.4-.1c-4.36,0-5,.2-9.16.17,1.26-.08-.64-.13,2.16-.18-1.4,0-2.65,0-2.68,0-.81,0-3.87.1-5.16,0a23.26,23.26,0,0,1-2.35.1c-.17,0,0,0,0,0s-2.46.05-1.09.13c-4.3-.23-12,0-15.78-.19l-9.5,0a1.36,1.36,0,0,1,.54,0c-3.82-.07-2.35.23-6.7.15-2.22-.14,2.31-.07.92-.12-.6-.27-5.24,0-8.17-.13l.71,0c-2.23-.09-5.45.1-9.11.08,0,0,.18,0,0,0-2.5.14-7.23.18-10.74.22,1.09-.11,1.6-.06.93-.17-1.58,0,.46.18-2.68.22-1-.07-3.29-.12-3.6-.25h3c-1.52-.16-3.84,0-5.4,0l.2-.07c-4.55,0-4.61.2-9.5.18l.51.06c-2.67.18-2.24-.11-4.9,0l-.81-.19c-1.76,0-6.17.18-9.33.21,1.79-.14,5.49-.21,7.77-.29-1.74,0-5.93,0-6.84.1.7,0,1.59-.06,2.28,0-2.14.15-5,.22-8.44.22.62-.38-9.07-.1-11.59-.41-6.16.14-12.22-.07-19.39-.06,2.55.32-2.09,0-1.65.33-1.67,0-2.31,0-2.46,0L1221,801c-1.2-.1,1.59-.07,1.43-.14-3.65,0-1.53-.15-4-.24.5.12-1.27.17-3.36.12l2.94.16c-5.11.17-4.42-.29-9.57-.12l1.63-.1c-2.65.05-9.76,0-12.35.25-.47,0-1.08-.14.08-.16-6.32-.06-14.06.28-19,.1l.48-.09a30.3,30.3,0,0,1-3.52.07c.07,0,.47-.08-.08-.09s-3.13.15-4.69.1l1.34-.1c-6.17-.13-9.46.23-14.63.29,0-.27-4.84-.36-7.26-.41l.09,0c-7.18-.05-12.19.21-18.84.31-4.13-.31-14-.14-20.6-.33,1,0-.17.23-1.35.26-1.55-.07-4.3.2-4-.08h.55a51,51,0,0,0-6.87-.22l-.41.37c-6.53-.55-17.11.18-20.67-.32-1.58.1-3.53.09-5.09.19l.08-.21c-4.37-.06-6.55-.09-11.94-.05l1.1-.14c-3,0-3.85.59-6.65.6l-.85-.31c-5.31,0-10.69-.29-15.93,0,.08,0,.24-.14,1.1-.15-2.5,0-9.67-.24-8.77.21-.06-.29-5.48,0-8.34.09l.44-.21a42.67,42.67,0,0,1-5.88.42c-.8,0-.7-.17.37-.12-2.67-.11-2.08.21-5.32.09l1.2-.14a21.11,21.11,0,0,0-4,.22,29.13,29.13,0,0,1-5.61-.26,14.64,14.64,0,0,1-3.5.23c-.22-.08.37-.13.67-.15-4.59-.16-6.83.26-10,0a1.07,1.07,0,0,0-.53-.14c3.65,0,6.59,0,6.31.05,0-.21-2.95-.26-.6-.54-2.37.15-6.41.49-9.29.39l-.38-.07.3,0a17.48,17.48,0,0,0-1.81,0c-.92,0-1.5-.07-2.38-.07a38.93,38.93,0,0,0-4.85-.11c.12.23-1.81.19,0,.39-.24,0,.27,0,1.25,0l.63,0-.1,0h3.65a21.28,21.28,0,0,1-4,.08c-.75.15-1.58.31-2.05.38-2-.33-5.89-.51-6.43-.72-4.49.13-10.57.08-13.39.53a5.24,5.24,0,0,1-2-.21c.74,0,1.62,0,2-.1-2.56.12-7.56,0-8.17.36-3.22-.15,1.81-.29-2.61-.24l.59-.1c-8.69-.54-14.13.82-23.76.14A5,5,0,0,1,925,801c-11-.32-22.64.28-33.48-.23a27.19,27.19,0,0,0-5.29.29l-.67-.29-3.22.33c-4.56.25-7.89-.72-13.66-.25l.74.19c-2.07,0-6.57.12-6.22-.11a3.81,3.81,0,0,1-1.49.1l-.06-.15-5.1.26c-3.94-.12.62-.62-5.14-.66-2.14.06-6.1.46-5.29.56a6.87,6.87,0,0,1,2.27.26l-2,.08c-.36.47-1.86,1,3,1.27l3.35-.29,1.08.22-2.82,0a13.24,13.24,0,0,0,3.75-.11,4.38,4.38,0,0,0,1.4.24l3.29-.44c.4.18-1.48.36.73.45,1.54-.2-1.48-.4,1.07-.53a7.75,7.75,0,0,0,3,.19c.26.12-.13.2-.88.25,1.68-.14,4.43-.07,5.3-.31,1.67.25,5.65-.07,5.49.36a38.2,38.2,0,0,1,4.48-.36c-2.81.51,5.76,0,5,.56,2.08-.45,7.51-.21,11.19-.46a4.8,4.8,0,0,1-.93.08c2.07,0,2.67.17,4,.25.26-.37,3.49-.45,5.23-.68,2.54.35-1.54.43-.74.77-.13-.3,4.41-.3,3.55-.55a10.45,10.45,0,0,1,2.67.4c.34-.45,1.81-.08,3.43-.36,2.81.22.72.42,3.81.28C917.31,802.8,914.56,803,914.56,803Zm73.48-.84h0l-1.51,0Zm6.18,0h-2.68c-.21-.08,0-.16.64-.16A11.66,11.66,0,0,0,994.22,802.11Zm-13.06-1.61a4.53,4.53,0,0,1,1.44.06l-1.71,0-.12,0A1.58,1.58,0,0,1,981.16,800.5Z"
		transform="translate(-299.04 -203.27)" />
	<path class="cls-11" d="M979.4,800.8l-.4,0,.58,0,.35-.07Z" transform="translate(-299.04 -203.27)" />
	<path class="cls-11" d="M1539.19,801.44h0Z" transform="translate(-299.04 -203.27)" />
	<polygon class="cls-11" points="780.45 599.14 780.44 599.09 779.9 599.14 780.45 599.14" />
	<path class="cls-11" d="M1573.2,801.56h0Z" transform="translate(-299.04 -203.27)" />
	<path class="cls-11" d="M1587.9,801.56h0Z" transform="translate(-299.04 -203.27)" />
	<path class="cls-11" d="M1599.19,801.56h0Z" transform="translate(-299.04 -203.27)" />
	<path class="cls-11" d="M1419.59,801.82h-.44C1418.13,801.84,1418.83,801.84,1419.59,801.82Z"
		transform="translate(-299.04 -203.27)" />
	<path class="cls-11" d="M1473,801.6l-1.72,0C1472.27,801.63,1473,801.63,1473,801.6Z"
		transform="translate(-299.04 -203.27)" />
	<path class="cls-11" d="M1359.91,802Z" transform="translate(-299.04 -203.27)" />
	<path class="cls-11" d="M1468.83,801.63h0Z" transform="translate(-299.04 -203.27)" />
	<path class="cls-11" d="M1648.15,801.51h0Z" transform="translate(-299.04 -203.27)" />
	<path class="cls-11" d="M1648.76,801.51h0Z" transform="translate(-299.04 -203.27)" />
	<path class="cls-11" d="M1650.64,801.51h0Z" transform="translate(-299.04 -203.27)" />
	<path class="cls-11" d="M1633.2,801.53h0Z" transform="translate(-299.04 -203.27)" />
	<path class="cls-11" d="M1628.65,801.53h0Z" transform="translate(-299.04 -203.27)" />
	<path class="cls-11" d="M1609.69,801.47h3.8c-.66,0-1.54,0,.19,0C1608.88,801.44,1614.68,801.47,1609.69,801.47Z"
		transform="translate(-299.04 -203.27)" />
	<path class="cls-11" d="M1597.88,801.45c2,0,0,0,.08,0C1596.67,801.44,1596.35,801.44,1597.88,801.45Z"
		transform="translate(-299.04 -203.27)" />
	<path class="cls-11" d="M1512.55,801.38l.21,0C1511.18,801.34,1512.74,801.35,1512.55,801.38Z"
		transform="translate(-299.04 -203.27)" />
	<polygon class="cls-11" points="1197.2 598.36 1198.73 598.39 1199.46 598.35 1197.2 598.36" />
	<polygon class="cls-11" points="1187.56 597.98 1188.25 597.97 1185.62 597.99 1187.56 597.98" />
	<path class="cls-11" d="M1343.3,801.09l.48.12C1344.84,801.19,1345.07,801.05,1343.3,801.09Z"
		transform="translate(-299.04 -203.27)" />
	<path class="cls-11" d="M1281.44,801.16a27.73,27.73,0,0,0-3.49,0C1279.34,801.12,1280.73,801.18,1281.44,801.16Z"
		transform="translate(-299.04 -203.27)" />
	<polygon class="cls-11" points="796.86 597.36 798.1 597.29 795.76 597.35 796.86 597.36" />
</svg>