<svg id="Layer_1" data-name="Layer 1" xmlns="http://www.w3.org/2000/svg" viewBox="0 0 3517 3157">
    <defs>
        <style>
            .cls-1,
            .cls-2 {
                stroke: #000;
                stroke-miterlimit: 10;
                stroke-width: 2.65px;
            }

            .cls-2 {
                fill: white;
            }

            .cls-3 {
                fill: white;
                fill-rule: evenodd;
            }
        </style>
    </defs>
    <line class="cls-1" x1="1168.26" y1="837.52" x2="1152.36" y2="837.52" />
    <line class="cls-1" x1="1241.3" y1="646.97" x2="1221.71" y2="646.97" />
    <path class="cls-2"
        d="M3413,647c-155.61,198.49-451.77,190.55-451.77,190.55h-1793a87.37,87.37,0,0,0-15.43-1.32c-52.16,0-109.82,41.94-129.44,93.95-.19.45-.34.87-.51,1.32a105.79,105.79,0,0,0-4.46,15.91l6.27-17.23L783.05,1599.7H2298.72l6.29-2.65c-155.61,198.49-451.78,190.55-451.78,190.55H1473.81l-277.74,763.06.2.4s-99.8,299-328.58,383.11l-.31-2.07L1284,1787.6H715.24l-1.29-.08-1.29-.1-278.44,765-.08.08c-6.8,19.69-107.46,300.9-328.19,382L267.64,2746,104,2936.18,822.67,961.66q3.86-15.17,9.53-30.78c57.23-157.23,231.07-284.69,388.3-284.69,7.09,0,14,.27,20.79.77Z" />
    <path class="cls-3"
        d="M3413,647c-155.61,198.49-451.77,190.55-451.77,190.55h-1793a87.37,87.37,0,0,0-15.43-1.32c-52.16,0-109.82,41.94-129.44,93.95-.19.45-.34.87-.51,1.32a105.79,105.79,0,0,0-4.46,15.91l6.27-17.23L783.05,1599.7H2298.72l6.29-2.65c-155.61,198.49-451.78,190.55-451.78,190.55H1473.81l-277.74,763.06.2.4s-99.8,299-328.58,383.11l-.31-2.07L1284,1787.6H715.24l-1.29-.08-1.29-.1-278.44,765-.08.08c-6.8,19.69-107.46,300.9-328.19,382L267.64,2746,104,2936.18,822.67,961.66q3.86-15.17,9.53-30.78c57.23-157.23,231.07-284.69,388.3-284.69,7.09,0,14,.27,20.79.77Z" />
    <polygon class="cls-2" points="715.24 1787.6 713.92 1787.6 713.95 1787.52 715.24 1787.6" />
    <polygon class="cls-3" points="715.24 1787.6 713.92 1787.6 713.95 1787.52 715.24 1787.6" />
    <path d="M1024.69,930.14l-6.27,17.23a105.79,105.79,0,0,1,4.46-15.91c.17-.45.32-.87.51-1.32Z" />
</svg>